<svg width="0" height="0" class="hidden">
  <symbol xmlns="http://www.w3.org/2000/svg" viewBox="0 0 362.734 512" id="CSS3">
    <path fill="#264de4" d="M362.734 100.62l-33.046 370.199L181.145 512 33.011 470.877 0 100.62z"></path>
    <path fill="#2965f1" d="M301.397 447.246l28.24-316.352h-148.27v349.629z"></path>
    <path fill="#ebebeb" d="M75.677 268.217l4.07 45.41h101.62v-45.41zm105.69-91.912H67.499l4.128 45.411h109.74zm0 257.094v-47.246l-.199.053-50.574-13.656-3.233-36.217H81.776l6.362 71.301 93.02 25.823z"></path>
    <path d="M85.367 0h55v23h-32v23h32v23h-55zm66 0h55v20h-32v4h32v46h-55V49h32v-4h-32zm66 0h55v20h-32v4h32v46h-55V49h32v-4h-32z"></path>
    <path fill="#fff" d="M237.128 313.627l-5.271 58.894-50.647 13.67v47.244l93.094-25.801.683-7.672 10.671-119.551 1.108-12.194 8.198-91.912H181.21v45.411h63.988l-4.132 46.501H181.21v45.41z"></path>
  </symbol>
  <symbol xmlns="http://www.w3.org/2000/svg" id="express.js" viewBox="0 0 120 60">
    <path d="M40 41.753V18.708h1.25v3.625a4.74 4.74 0 0 0 .408-.511 6.195 6.195 0 0 1 5.65-3.506c2.85-.085 5.166.97 6.527 3.506a11.27 11.27 0 0 1 .272 10.331c-1.268 2.842-4.4 4.255-7.753 3.736a6.27 6.27 0 0 1-5.004-3.302v9.165zm1.25-14.893l.28 2.706c.494 3.08 2.315 4.9 5.174 5.242a5.88 5.88 0 0 0 6.459-3.736 10.024 10.024 0 0 0-.22-8.238 5.76 5.76 0 0 0-6.068-3.353 5.61 5.61 0 0 0-5.012 4.144 28.62 28.62 0 0 0-.613 3.234zm39.498 3.132a6.74 6.74 0 0 1-6.587 5.957c-5.242.264-7.702-3.217-8.093-7.234a11.59 11.59 0 0 1 1.021-6.383 7.12 7.12 0 0 1 7.412-3.974 6.81 6.81 0 0 1 6.042 5.183 34.97 34.97 0 0 1 .587 3.83H67.363c-.255 3.642 1.702 6.57 4.476 7.276 3.455.85 6.408-.647 7.48-3.932.238-.843.672-.962 1.438-.723zm-13.395-3.787h12.314c-.077-3.88-2.493-6.7-5.77-6.732-3.7-.06-6.383 2.647-6.544 6.732zm15.94 3.872H84.5a4.84 4.84 0 0 0 2.842 4.17 7.43 7.43 0 0 0 6.451-.17 2.9 2.9 0 0 0 1.702-2.851 2.63 2.63 0 0 0-1.77-2.63c-1.328-.494-2.74-.766-4.093-1.2a30 30 0 0 1-4.119-1.506c-2.18-1.064-2.315-5.208.153-6.52a8.69 8.69 0 0 1 8.306-.128 4.375 4.375 0 0 1 2.213 4.46H95.15c0-.05-.094-.094-.094-.145-.128-3.3-2.902-4.332-5.88-4.042-.9.1-1.753.372-2.553.774a2.55 2.55 0 0 0-1.48 2.553 2.55 2.55 0 0 0 1.702 2.4c1.3.477 2.68.783 4.025 1.157l3.25.85a3.84 3.84 0 0 1 2.638 3.464 4.093 4.093 0 0 1-2.204 4.255c-2.842 1.608-7.523 1.183-9.608-.85a5.673 5.673 0 0 1-1.65-4.042zm28.78-6.374h-1.132c0-.153-.06-.3-.077-.417a3.7 3.7 0 0 0-3.013-3.557 7.43 7.43 0 0 0-4.774.23 2.9 2.9 0 0 0-2.102 2.766 2.67 2.67 0 0 0 2.042 2.689l5.174 1.328a14.39 14.39 0 0 1 1.65.502c1.65.6 2.77 2.132 2.82 3.883a4.25 4.25 0 0 1-2.6 4.04 9.47 9.47 0 0 1-7.659.077 5.31 5.31 0 0 1-3.2-5.157h1.106a6.205 6.205 0 0 0 9.446 3.949 3.04 3.04 0 0 0 1.634-2.842 2.63 2.63 0 0 0-1.796-2.613c-1.328-.494-2.74-.757-4.093-1.2a30.15 30.15 0 0 1-4.144-1.489c-2.128-1.047-2.298-5.157.128-6.468a8.57 8.57 0 0 1 8.442-.094 4.45 4.45 0 0 1 2.136 4.366zm-74.13 11.83a1.95 1.95 0 0 1-2.417-.919l-4.4-6.085-.638-.85-5.106 6.944a1.87 1.87 0 0 1-2.298.902l6.578-8.825-6.12-7.974a2.035 2.035 0 0 1 2.425.85l4.56 6.16 4.587-6.136a1.83 1.83 0 0 1 2.281-.851L35.02 21.9l-3.217 4.187a.85.85 0 0 0 0 1.268l6.127 8.178zm27.93-16.892v1.2a6.17 6.17 0 0 0-6.57 6.374v9.361h-1.217v-16.86h1.2v3.455c1.472-2.52 3.744-3.455 6.595-3.523zM7.333 26.59l.536-2.647c1.472-5.234 7.472-7.412 11.6-4.17 2.417 1.898 3.02 4.587 2.902 7.617H8.754c-.22 5.412 3.685 8.68 8.68 7.012a5.201 5.201 0 0 0 3.293-3.668c.264-.85.7-.996 1.498-.75a6.91 6.91 0 0 1-3.302 5.047 8 8 0 0 1-9.319-1.191 8.387 8.387 0 0 1-2.093-4.92c0-.3-.1-.58-.17-.85q-.01-.757-.01-1.48zm1.438-.366h12.314c-.077-3.923-2.553-6.706-5.855-6.732-3.676-.05-6.306 2.672-6.468 6.715z"></path>
  </symbol>
  <symbol xmlns="http://www.w3.org/2000/svg" viewBox="0 0 97 97" id="git">
    <path fill="#F05133" d="M92.71 44.408L52.591 4.291a5.918 5.918 0 0 0-8.369 0l-8.33 8.332L46.459 23.19a7.022 7.022 0 0 1 7.229 1.685 7.03 7.03 0 0 1 1.67 7.275l10.186 10.185a7.028 7.028 0 0 1 7.275 1.671 7.043 7.043 0 0 1-9.961 9.958 7.043 7.043 0 0 1-1.531-7.658l-9.5-9.499v24.997a7.042 7.042 0 1 1-8.096 11.291 7.042 7.042 0 0 1 2.307-11.496v-25.23a7.041 7.041 0 0 1-3.823-9.235L31.798 16.715 4.288 44.222a5.92 5.92 0 0 0 0 8.371l40.121 40.118a5.918 5.918 0 0 0 8.369 0L92.71 52.779a5.92 5.92 0 0 0 0-8.371z"></path>
  </symbol>
  <symbol xmlns="http://www.w3.org/2000/svg" viewBox="0 0 512 512" id="HTML5">
    <title>HTML5 Logo</title>
    <path d="M108.4 0h23v22.8h21.2V0h23v69h-23V46h-21v23h-23.2M206 23h-20.3V0h63.7v23H229v46h-23m53.5-69h24.1l14.8 24.3L313.2 0h24.1v69h-23V34.8l-16.1 24.8-16.1-24.8V69h-22.6m89.2-69h23v46.2h32.6V69h-55.6"></path>
    <path fill="#e44d26" d="M107.6 471l-33-370.4h362.8l-33 370.2L255.7 512"></path>
    <path fill="#f16529" d="M256 480.5V131h148.3L376 447"></path>
    <path fill="#ebebeb" d="M142 176.3h114v45.4h-64.2l4.2 46.5h60v45.3H154.4m2 22.8H202l3.2 36.3 50.8 13.6v47.4l-93.2-26"></path>
    <path fill="#fff" d="M369.6 176.3H255.8v45.4h109.6m-4.1 46.5H255.8v45.4h56l-5.3 59-50.7 13.6v47.2l93-25.8"></path>
  </symbol>
  <symbol xmlns="http://www.w3.org/2000/svg" viewBox="0 0 630 630" id="JS ES7">
    <path fill="#f7df1e" d="M0 0h630v630H0z"></path>
    <path d="M423.2 492.19c12.69 20.72 29.2 35.95 58.4 35.95 24.53 0 40.2-12.26 40.2-29.2 0-20.3-16.1-27.49-43.1-39.3l-14.8-6.35c-42.72-18.2-71.1-41-71.1-89.2 0-44.4 33.83-78.2 86.7-78.2 37.64 0 64.7 13.1 84.2 47.4l-46.1 29.6c-10.15-18.2-21.1-25.37-38.1-25.37-17.34 0-28.33 11-28.33 25.37 0 17.76 11 24.95 36.4 35.95l14.8 6.34c50.3 21.57 78.7 43.56 78.7 93 0 53.3-41.87 82.5-98.1 82.5-54.98 0-90.5-26.2-107.88-60.54zm-209.13 5.13c9.3 16.5 17.76 30.45 38.1 30.45 19.45 0 31.72-7.61 31.72-37.2v-201.3h59.2v202.1c0 61.3-35.94 89.2-88.4 89.2-47.4 0-74.85-24.53-88.81-54.075z"></path>
  </symbol>
  <symbol xmlns="http://www.w3.org/2000/svg" viewBox="0 0 128 128" id="MongoDB">
    <path fill-rule="evenodd" clip-rule="evenodd" fill="#439934" d="M88.038 42.812c1.605 4.643 2.761 9.383 3.141 14.296.472 6.095.256 12.147-1.029 18.142-.035.165-.109.32-.164.48-.403.001-.814-.049-1.208.012-3.329.523-6.655 1.065-9.981 1.604-3.438.557-6.881 1.092-10.313 1.687-1.216.21-2.721-.041-3.212 1.641-.014.046-.154.054-.235.08l.166-10.051-.169-24.252 1.602-.275c2.62-.429 5.24-.864 7.862-1.281 3.129-.497 6.261-.98 9.392-1.465 1.381-.215 2.764-.412 4.148-.618z"></path>
    <path fill-rule="evenodd" clip-rule="evenodd" fill="#45A538" d="M61.729 110.054c-1.69-1.453-3.439-2.842-5.059-4.37-8.717-8.222-15.093-17.899-18.233-29.566-.865-3.211-1.442-6.474-1.627-9.792-.13-2.322-.318-4.665-.154-6.975.437-6.144 1.325-12.229 3.127-18.147l.099-.138c.175.233.427.439.516.702 1.759 5.18 3.505 10.364 5.242 15.551 5.458 16.3 10.909 32.604 16.376 48.9.107.318.384.579.583.866l-.87 2.969z"></path>
    <path fill-rule="evenodd" clip-rule="evenodd" fill="#46A037" d="M88.038 42.812c-1.384.206-2.768.403-4.149.616-3.131.485-6.263.968-9.392 1.465-2.622.417-5.242.852-7.862 1.281l-1.602.275-.012-1.045c-.053-.859-.144-1.717-.154-2.576-.069-5.478-.112-10.956-.18-16.434-.042-3.429-.105-6.857-.175-10.285-.043-2.13-.089-4.261-.185-6.388-.052-1.143-.236-2.28-.311-3.423-.042-.657.016-1.319.029-1.979.817 1.583 1.616 3.178 2.456 4.749 1.327 2.484 3.441 4.314 5.344 6.311 7.523 7.892 12.864 17.068 16.193 27.433z"></path>
    <path fill-rule="evenodd" clip-rule="evenodd" fill="#409433" d="M65.036 80.753c.081-.026.222-.034.235-.08.491-1.682 1.996-1.431 3.212-1.641 3.432-.594 6.875-1.13 10.313-1.687 3.326-.539 6.652-1.081 9.981-1.604.394-.062.805-.011 1.208-.012-.622 2.22-1.112 4.488-1.901 6.647-.896 2.449-1.98 4.839-3.131 7.182a49.142 49.142 0 0 1-6.353 9.763c-1.919 2.308-4.058 4.441-6.202 6.548-1.185 1.165-2.582 2.114-3.882 3.161l-.337-.23-1.214-1.038-1.256-2.753a41.402 41.402 0 0 1-1.394-9.838l.023-.561.171-2.426c.057-.828.133-1.655.168-2.485.129-2.982.241-5.964.359-8.946z"></path>
    <path fill-rule="evenodd" clip-rule="evenodd" fill="#4FAA41" d="M65.036 80.753c-.118 2.982-.23 5.964-.357 8.947-.035.83-.111 1.657-.168 2.485l-.765.289c-1.699-5.002-3.399-9.951-5.062-14.913-2.75-8.209-5.467-16.431-8.213-24.642a4498.887 4498.887 0 0 0-6.7-19.867c-.105-.31-.407-.552-.617-.826l4.896-9.002c.168.292.39.565.496.879a6167.476 6167.476 0 0 1 6.768 20.118c2.916 8.73 5.814 17.467 8.728 26.198.116.349.308.671.491 1.062l.67-.78-.167 10.052z"></path>
    <path fill-rule="evenodd" clip-rule="evenodd" fill="#4AA73C" d="M43.155 32.227c.21.274.511.516.617.826a4498.887 4498.887 0 0 1 6.7 19.867c2.746 8.211 5.463 16.433 8.213 24.642 1.662 4.961 3.362 9.911 5.062 14.913l.765-.289-.171 2.426-.155.559c-.266 2.656-.49 5.318-.814 7.968-.163 1.328-.509 2.632-.772 3.947-.198-.287-.476-.548-.583-.866-5.467-16.297-10.918-32.6-16.376-48.9a3888.972 3888.972 0 0 0-5.242-15.551c-.089-.263-.34-.469-.516-.702l3.272-8.84z"></path>
    <path fill-rule="evenodd" clip-rule="evenodd" fill="#57AE47" d="M65.202 70.702l-.67.78c-.183-.391-.375-.714-.491-1.062-2.913-8.731-5.812-17.468-8.728-26.198a6167.476 6167.476 0 0 0-6.768-20.118c-.105-.314-.327-.588-.496-.879l6.055-7.965c.191.255.463.482.562.769 1.681 4.921 3.347 9.848 5.003 14.778 1.547 4.604 3.071 9.215 4.636 13.813.105.308.47.526.714.786l.012 1.045c.058 8.082.115 16.167.171 24.251z"></path>
    <path fill-rule="evenodd" clip-rule="evenodd" fill="#60B24F" d="M65.021 45.404c-.244-.26-.609-.478-.714-.786-1.565-4.598-3.089-9.209-4.636-13.813-1.656-4.93-3.322-9.856-5.003-14.778-.099-.287-.371-.514-.562-.769 1.969-1.928 3.877-3.925 5.925-5.764 1.821-1.634 3.285-3.386 3.352-5.968.003-.107.059-.214.145-.514l.519 1.306c-.013.661-.072 1.322-.029 1.979.075 1.143.259 2.28.311 3.423.096 2.127.142 4.258.185 6.388.069 3.428.132 6.856.175 10.285.067 5.478.111 10.956.18 16.434.008.861.098 1.718.152 2.577z"></path>
    <path fill-rule="evenodd" clip-rule="evenodd" fill="#A9AA88" d="M62.598 107.085c.263-1.315.609-2.62.772-3.947.325-2.649.548-5.312.814-7.968l.066-.01.066.011a41.402 41.402 0 0 0 1.394 9.838c-.176.232-.425.439-.518.701-.727 2.05-1.412 4.116-2.143 6.166-.1.28-.378.498-.574.744l-.747-2.566.87-2.969z"></path>
    <path fill-rule="evenodd" clip-rule="evenodd" fill="#B6B598" d="M62.476 112.621c.196-.246.475-.464.574-.744.731-2.05 1.417-4.115 2.143-6.166.093-.262.341-.469.518-.701l1.255 2.754c-.248.352-.59.669-.728 1.061l-2.404 7.059c-.099.283-.437.483-.663.722l-.695-3.985z"></path>
    <path fill-rule="evenodd" clip-rule="evenodd" fill="#C2C1A7" d="M63.171 116.605c.227-.238.564-.439.663-.722l2.404-7.059c.137-.391.48-.709.728-1.061l1.215 1.037c-.587.58-.913 1.25-.717 2.097l-.369 1.208c-.168.207-.411.387-.494.624-.839 2.403-1.64 4.819-2.485 7.222-.107.305-.404.544-.614.812-.109-1.387-.22-2.771-.331-4.158z"></path>
    <path fill-rule="evenodd" clip-rule="evenodd" fill="#CECDB7" d="M63.503 120.763c.209-.269.506-.508.614-.812.845-2.402 1.646-4.818 2.485-7.222.083-.236.325-.417.494-.624l-.509 5.545c-.136.157-.333.294-.398.477-.575 1.614-1.117 3.24-1.694 4.854-.119.333-.347.627-.525.938-.158-.207-.441-.407-.454-.623-.051-.841-.016-1.688-.013-2.533z"></path>
    <path fill-rule="evenodd" clip-rule="evenodd" fill="#DBDAC7" d="M63.969 123.919c.178-.312.406-.606.525-.938.578-1.613 1.119-3.239 1.694-4.854.065-.183.263-.319.398-.477l.012 3.64-1.218 3.124-1.411-.495z"></path>
    <path fill-rule="evenodd" clip-rule="evenodd" fill="#EBE9DC" d="M65.38 124.415l1.218-3.124.251 3.696-1.469-.572z"></path>
    <path fill-rule="evenodd" clip-rule="evenodd" fill="#CECDB7" d="M67.464 110.898c-.196-.847.129-1.518.717-2.097l.337.23-1.054 1.867z"></path>
    <path fill-rule="evenodd" clip-rule="evenodd" fill="#4FAA41" d="M64.316 95.172l-.066-.011-.066.01.155-.559-.023.56z"></path>
  </symbol>
  <symbol xmlns="http://www.w3.org/2000/svg" version="1.2" viewBox="0 0 442.37 270.929" id="Node.js">
    <defs>
      <clipPath id="a">
        <path d="M239.03 226.605l-42.13 24.317a5.085 5.085 0 0 0-2.546 4.406v48.668c0 1.817.968 3.496 2.546 4.406l42.133 24.336a5.1 5.1 0 0 0 5.09 0l42.126-24.336a5.096 5.096 0 0 0 2.54-4.406v-48.668c0-1.816-.97-3.496-2.55-4.406l-42.12-24.317a5.123 5.123 0 0 0-5.1 0"></path>
      </clipPath>
      <linearGradient id="b" x1="-.348" x2="1.251" gradientTransform="rotate(116.114 53.1 202.97) scale(86.48)" gradientUnits="userSpaceOnUse">
        <stop offset=".3" stop-color="#3E863D"></stop>
        <stop offset=".5" stop-color="#55934F"></stop>
        <stop offset=".8" stop-color="#5AAD45"></stop>
      </linearGradient>
      <clipPath id="c">
        <path d="M195.398 307.086c.403.523.907.976 1.5 1.316l36.14 20.875 6.02 3.46c.9.52 1.926.74 2.934.665.336-.027.672-.09 1-.183l44.434-81.36c-.34-.37-.738-.68-1.184-.94l-27.586-15.93-14.582-8.39a5.318 5.318 0 0 0-1.32-.53zm0 0"></path>
      </clipPath>
      <linearGradient id="d" x1="-.456" x2=".582" gradientTransform="rotate(-36.46 550.846 -214.337) scale(132.798)" gradientUnits="userSpaceOnUse">
        <stop offset=".57" stop-color="#3E863D"></stop>
        <stop offset=".72" stop-color="#619857"></stop>
        <stop offset="1" stop-color="#76AC64"></stop>
      </linearGradient>
      <clipPath id="e">
        <path d="M241.066 225.953a5.14 5.14 0 0 0-2.035.652l-42.01 24.247 45.3 82.51c.63-.09 1.25-.3 1.81-.624l42.13-24.336a5.105 5.105 0 0 0 2.46-3.476l-46.18-78.89a5.29 5.29 0 0 0-1.03-.102c-.14 0-.28.007-.42.02"></path>
      </clipPath>
      <linearGradient id="f" x1=".043" x2=".984" gradientTransform="translate(192.862 279.652) scale(97.417)" gradientUnits="userSpaceOnUse">
        <stop offset=".16" stop-color="#6BBF47"></stop>
        <stop offset=".38" stop-color="#79B461"></stop>
        <stop offset=".47" stop-color="#75AC64"></stop>
        <stop offset=".7" stop-color="#659E5A"></stop>
        <stop offset=".9" stop-color="#3E863D"></stop>
      </linearGradient>
    </defs>
    <path fill="#689f63" d="M218.647 270.93c-1.46 0-2.91-.383-4.19-1.12l-13.337-7.896c-1.992-1.114-1.02-1.508-.363-1.735 2.656-.93 3.195-1.14 6.03-2.75.298-.17.688-.11.993.07l10.246 6.08c.37.2.895.2 1.238 0l39.95-23.06c.37-.21.61-.64.61-1.08v-46.1c0-.46-.24-.87-.618-1.1l-39.934-23.04c-.37-.22-.86-.22-1.23 0l-39.926 23.04c-.387.22-.633.65-.633 1.09v46.1c0 .44.24.86.62 1.07l10.94 6.32c5.94 2.97 9.57-.53 9.57-4.05v-45.5c0-.65.51-1.15 1.16-1.15h5.06c.63 0 1.15.5 1.15 1.15v45.52c0 7.92-4.32 12.47-11.83 12.47-2.31 0-4.13 0-9.21-2.5l-10.48-6.04a8.447 8.447 0 0 1-4.19-7.29v-46.1c0-3 1.6-5.8 4.19-7.28l39.99-23.07c2.53-1.43 5.89-1.43 8.4 0l39.94 23.08a8.428 8.428 0 0 1 4.19 7.28v46.1c0 2.99-1.61 5.78-4.19 7.28l-39.94 23.07a8.397 8.397 0 0 1-4.21 1.12"></path>
    <path fill="#689f63" d="M230.987 239.164c-17.48 0-21.145-8.024-21.145-14.754 0-.64.516-1.15 1.157-1.15h5.16c.57 0 1.05.415 1.14.978.78 5.258 3.1 7.91 13.67 7.91 8.42 0 12-1.902 12-6.367 0-2.57-1.02-4.48-14.1-5.76-10.94-1.08-17.7-3.49-17.7-12.24 0-8.06 6.8-12.86 18.19-12.86 12.79 0 19.13 4.44 19.93 13.98a1.164 1.164 0 0 1-1.16 1.26h-5.19c-.54 0-1.01-.38-1.12-.9-1.25-5.53-4.27-7.3-12.48-7.3-9.19 0-10.26 3.2-10.26 5.6 0 2.91 1.26 3.76 13.66 5.4 12.28 1.63 18.11 3.93 18.11 12.56 0 8.7-7.26 13.69-19.92 13.69m48.66-48.89h1.34c1.1 0 1.31-.77 1.31-1.22 0-1.18-.81-1.18-1.26-1.18h-1.38zm-1.63-3.78h2.97c1.02 0 3.02 0 3.02 2.28 0 1.59-1.02 1.92-1.63 2.12 1.19.08 1.27.86 1.43 1.96.08.69.21 1.88.45 2.28h-1.83c-.05-.4-.33-2.6-.33-2.72-.12-.49-.29-.73-.9-.73h-1.51v3.46h-1.67zm-3.57 4.3c0 3.58 2.89 6.48 6.44 6.48 3.58 0 6.47-2.96 6.47-6.48 0-3.59-2.93-6.44-6.48-6.44-3.5 0-6.44 2.81-6.44 6.43m14.16.03c0 4.24-3.47 7.7-7.7 7.7-4.2 0-7.7-3.42-7.7-7.7 0-4.36 3.58-7.7 7.7-7.7 4.15 0 7.69 3.35 7.69 7.7"></path>
    <path fill="#333" fill-rule="evenodd" d="M94.936 90.55c0-1.84-.97-3.53-2.558-4.445l-42.356-24.37a4.946 4.946 0 0 0-2.328-.67h-.438c-.812.03-1.613.25-2.34.67L2.562 86.105A5.154 5.154 0 0 0 0 90.555l.093 65.64c0 .91.47 1.76 1.27 2.21.78.48 1.76.48 2.54 0l25.18-14.42c1.59-.946 2.56-2.618 2.56-4.44V108.88a5.1 5.1 0 0 1 2.555-4.43l10.72-6.174a5.086 5.086 0 0 1 2.56-.688c.876 0 1.77.226 2.544.687l10.715 6.172c1.586.91 2.56 2.6 2.56 4.43v30.663c0 1.82.983 3.5 2.565 4.44l25.164 14.41a2.5 2.5 0 0 0 2.56 0 2.568 2.568 0 0 0 1.268-2.21zm199.868 34.176c0 .457-.243.88-.64 1.106l-14.548 8.386a1.282 1.282 0 0 1-1.277 0l-14.55-8.386c-.4-.227-.64-.65-.64-1.106V107.93c0-.458.24-.88.63-1.11l14.54-8.4c.4-.23.89-.23 1.29 0l14.55 8.4c.4.23.64.652.64 1.11zM298.734.324a2.568 2.568 0 0 0-2.544.027c-.78.46-1.262 1.3-1.262 2.21v65a1.788 1.788 0 0 1-2.684 1.55L281.634 63a5.108 5.108 0 0 0-5.112 0l-42.37 24.453a5.105 5.105 0 0 0-2.56 4.42v48.92c0 1.83.977 3.51 2.56 4.43l42.37 24.47c1.582.91 3.53.91 5.117 0l42.37-24.48c1.58-.92 2.56-2.6 2.56-4.43V18.863a5.128 5.128 0 0 0-2.63-4.47zm141.093 107.164a5.116 5.116 0 0 0 2.543-4.422V91.21c0-1.824-.97-3.507-2.547-4.425l-42.1-24.44a5.113 5.113 0 0 0-5.13 0l-42.36 24.45c-1.59.92-2.56 2.6-2.56 4.43v48.9c0 1.84.99 3.54 2.58 4.45l42.09 23.99c1.55.89 3.45.9 5.02.03l25.46-14.15c.8-.45 1.31-1.3 1.31-2.22 0-.92-.49-1.78-1.29-2.23l-42.62-24.46c-.8-.45-1.29-1.3-1.29-2.21v-15.34c0-.916.48-1.76 1.28-2.216l13.26-7.65c.79-.46 1.76-.46 2.55 0l13.27 7.65c.79.45 1.28 1.3 1.28 2.21v12.06c0 .91.49 1.76 1.28 2.22.79.45 1.77.45 2.56-.01zm0 0"></path>
    <path fill="#689f63" fill-rule="evenodd" d="M394.538 105.2a.97.97 0 0 1 .98 0l8.13 4.69c.304.176.49.5.49.85v9.39c0 .35-.186.674-.49.85l-8.13 4.69a.97.97 0 0 1-.98 0l-8.125-4.69a.979.979 0 0 1-.5-.85v-9.39c0-.35.18-.674.49-.85zm0 0"></path>
    <g clip-path="url(#a)" transform="translate(-78.306 -164.016)">
      <path fill="url(#b)" d="M331.363 246.793l-118.715-58.19-60.87 124.174L270.49 370.97zm0 0"></path>
    </g>
    <g clip-path="url(#c)" transform="translate(-78.306 -164.016)">
      <path fill="url(#d)" d="M144.07 264.004l83.825 113.453 110.86-81.906-83.83-113.45zm0 0"></path>
    </g>
    <g clip-path="url(#e)" transform="translate(-78.306 -164.016)">
      <path fill="url(#f)" d="M197.02 225.934v107.43h91.683v-107.43zm0 0"></path>
    </g>
  </symbol>
  <symbol xmlns="http://www.w3.org/2000/svg" viewBox="0 0 240 234" id="Photoshop">
    <path d="M10 10h220v214H10V10z" fill="#001d26"></path>
    <path d="M0 0v234h240V0H0zm10 10h220v214H10V10zm48 44.8c0-.7 1.4-1.2 2.2-1.2 6.4-.3 15.9-.5 25.8-.5 27.7 0 38.5 15.2 38.5 34.7 0 25.4-18.4 36.3-41 36.3-3.8 0-5.1-.2-7.8-.2v38.4c0 .8-.3 1.2-1.2 1.2H59.2c-.8 0-1.2-.3-1.2-1.2V54.8zm17.8 53.1c2.3.2 4.1.2 8.1.2 11.7 0 22.7-4.1 22.7-20 0-12.7-7.9-19.1-21.2-19.1-4 0-7.8.2-9.6.3v38.6zm86-11.9c-7.9 0-10.6 4-10.6 7.3 0 3.6 1.8 6.1 12.4 11.6 15.7 7.6 20.6 14.9 20.6 25.6 0 16-12.2 24.6-28.7 24.6-8.7 0-16.2-1.8-20.5-4.3-.7-.3-.8-.8-.8-1.6v-14.7c0-1 .5-1.3 1.2-.8 6.3 4.1 13.5 5.9 20.1 5.9 7.9 0 11.2-3.3 11.2-7.8 0-3.6-2.3-6.8-12.4-12-14.2-6.8-20.1-13.7-20.1-25.2 0-12.9 10.1-23.6 27.6-23.6 8.6 0 14.6 1.3 17.9 2.8.8.5 1 1.3 1 2v13.7c0 .8-.5 1.3-1.5 1-4.4-2.8-10.9-4.5-17.4-4.5z"
      fill="#00c8ff"></path>
  </symbol>
  <symbol viewBox="0 0 256 230" xmlns="http://www.w3.org/2000/svg" preserveAspectRatio="xMinYMin meet" id="React">
    <path d="M.754 114.75c0 19.215 18.763 37.152 48.343 47.263-5.907 29.737-1.058 53.706 15.136 63.045 16.645 9.6 41.443 2.955 64.98-17.62 22.943 19.744 46.13 27.514 62.31 18.148 16.63-9.627 21.687-35.221 15.617-65.887 30.81-10.186 48.044-25.481 48.044-44.949 0-18.769-18.797-35.006-47.979-45.052 6.535-31.933.998-55.32-15.867-65.045-16.259-9.376-39.716-1.204-62.996 19.056C104.122 2.205 80.897-4.36 64.05 5.392 47.806 14.795 43.171 39.2 49.097 69.487 20.515 79.452.754 96.057.754 114.75z"
      fill="#FFF"></path>
    <path d="M201.025 79.674a151.364 151.364 0 0 0-7.274-2.292 137.5 137.5 0 0 0 1.124-4.961c5.506-26.728 1.906-48.26-10.388-55.348-11.787-6.798-31.065.29-50.535 17.233a151.136 151.136 0 0 0-5.626 5.163 137.573 137.573 0 0 0-3.744-3.458c-20.405-18.118-40.858-25.752-53.139-18.643-11.776 6.817-15.264 27.06-10.307 52.39a150.91 150.91 0 0 0 1.67 7.484 149.875 149.875 0 0 0-8.363 2.63c-23.922 8.34-39.2 21.412-39.2 34.97 0 14.004 16.4 28.05 41.318 36.566a128.44 128.44 0 0 0 6.11 1.91 147.813 147.813 0 0 0-1.775 8.067c-4.726 24.89-1.035 44.653 10.71 51.428 12.131 6.995 32.491-.195 52.317-17.525 1.567-1.37 3.14-2.823 4.715-4.346a148.34 148.34 0 0 0 6.108 5.573c19.204 16.525 38.17 23.198 49.905 16.405 12.12-7.016 16.058-28.247 10.944-54.078-.39-1.973-.845-3.988-1.355-6.04 1.43-.422 2.833-.858 4.202-1.312 25.904-8.582 42.757-22.457 42.757-36.648 0-13.607-15.77-26.767-40.174-35.168z"
      fill="#53C1DE"></path>
    <path d="M195.406 142.328c-1.235.409-2.503.804-3.795 1.187-2.86-9.053-6.72-18.68-11.442-28.625 4.507-9.71 8.217-19.213 10.997-28.208 2.311.67 4.555 1.375 6.717 2.12 20.91 7.197 33.664 17.84 33.664 26.04 0 8.735-13.775 20.075-36.14 27.486zm-9.28 18.389c2.261 11.422 2.584 21.749 1.086 29.822-1.346 7.254-4.052 12.09-7.398 14.027-7.121 4.122-22.35-1.236-38.772-15.368a138.39 138.39 0 0 1-5.682-5.18c6.367-6.964 12.73-15.06 18.94-24.05 10.924-.969 21.244-2.554 30.603-4.717.46 1.86.87 3.683 1.223 5.466zm-93.85 43.137c-6.957 2.457-12.498 2.527-15.847.596-7.128-4.11-10.09-19.98-6.049-41.265a138.507 138.507 0 0 1 1.65-7.502c9.255 2.047 19.5 3.52 30.45 4.408 6.251 8.797 12.798 16.883 19.396 23.964a118.863 118.863 0 0 1-4.305 3.964c-8.767 7.664-17.552 13.1-25.294 15.835zm-32.593-61.58c-11.018-3.766-20.117-8.66-26.354-14-5.604-4.8-8.434-9.565-8.434-13.432 0-8.227 12.267-18.722 32.726-25.855a139.276 139.276 0 0 1 7.777-2.447c2.828 9.197 6.537 18.813 11.013 28.537-4.534 9.869-8.296 19.638-11.15 28.943a118.908 118.908 0 0 1-5.578-1.746zm10.926-74.37c-4.247-21.703-1.427-38.074 5.67-42.182 7.56-4.376 24.275 1.864 41.893 17.507 1.126 1 2.257 2.047 3.39 3.13-6.564 7.049-13.051 15.074-19.248 23.82-10.627.985-20.8 2.567-30.152 4.686a141.525 141.525 0 0 1-1.553-6.962zm97.467 24.067a306.982 306.982 0 0 0-6.871-11.3c7.21.91 14.117 2.12 20.603 3.601-1.947 6.241-4.374 12.767-7.232 19.457a336.42 336.42 0 0 0-6.5-11.758zm-39.747-38.714c4.452 4.823 8.911 10.209 13.297 16.052a284.245 284.245 0 0 0-26.706-.006c4.39-5.789 8.887-11.167 13.409-16.046zm-40.002 38.78a285.24 285.24 0 0 0-6.378 11.685c-2.811-6.667-5.216-13.222-7.18-19.552 6.447-1.443 13.322-2.622 20.485-3.517a283.79 283.79 0 0 0-6.927 11.384zm7.133 57.683c-7.4-.826-14.379-1.945-20.824-3.348 1.995-6.442 4.453-13.138 7.324-19.948a283.494 283.494 0 0 0 6.406 11.692 285.27 285.27 0 0 0 7.094 11.604zm33.136 27.389c-4.575-4.937-9.138-10.397-13.595-16.27 4.326.17 8.737.256 13.22.256 4.606 0 9.159-.103 13.64-.303-4.4 5.98-8.843 11.448-13.265 16.317zm46.072-51.032c3.02 6.884 5.566 13.544 7.588 19.877-6.552 1.495-13.625 2.699-21.078 3.593a337.537 337.537 0 0 0 6.937-11.498 306.632 306.632 0 0 0 6.553-11.972zm-14.915 7.15a316.478 316.478 0 0 1-10.84 17.49c-6.704.479-13.632.726-20.692.726-7.031 0-13.871-.219-20.458-.646A273.798 273.798 0 0 1 96.72 133.28a271.334 271.334 0 0 1-9.64-18.206 273.864 273.864 0 0 1 9.611-18.216v.002a271.252 271.252 0 0 1 10.956-17.442 273.484 273.484 0 0 1 41.188.006 290.704 290.704 0 0 1 10.887 17.383 316.418 316.418 0 0 1 9.741 18.13 290.806 290.806 0 0 1-9.709 18.29zm19.913-107.792c7.566 4.364 10.509 21.961 5.755 45.038a127.525 127.525 0 0 1-1.016 4.492c-9.374-2.163-19.554-3.773-30.212-4.773-6.209-8.841-12.642-16.88-19.1-23.838a141.92 141.92 0 0 1 5.196-4.766c16.682-14.518 32.273-20.25 39.377-16.153z"
      fill="#FFF"></path>
    <path d="M128.221 94.665c11.144 0 20.177 9.034 20.177 20.177 0 11.144-9.033 20.178-20.177 20.178-11.143 0-20.177-9.034-20.177-20.178 0-11.143 9.034-20.177 20.177-20.177" fill="#53C1DE"></path>
  </symbol>
  <symbol xmlns="http://www.w3.org/2000/svg" viewBox="0 0 100 100" id="Redux">
    <g fill="#764ABC">
      <path d="M65.6 65.4c2.9-.3 5.1-2.8 5-5.8-.1-3-2.6-5.4-5.6-5.4h-.2c-3.1.1-5.5 2.7-5.4 5.8.1 1.5.7 2.8 1.6 3.7-3.4 6.7-8.6 11.6-16.4 15.7-5.3 2.8-10.8 3.8-16.3 3.1-4.5-.6-8-2.6-10.2-5.9-3.2-4.9-3.5-10.2-.8-15.5 1.9-3.8 4.9-6.6 6.8-8-.4-1.3-1-3.5-1.3-5.1-14.5 10.5-13 24.7-8.6 31.4 3.3 5 10 8.1 17.4 8.1 2 0 4-.2 6-.7 12.8-2.5 22.5-10.1 28-21.4z"></path>
      <path d="M83.2 53c-7.6-8.9-18.8-13.8-31.6-13.8H50c-.9-1.8-2.8-3-4.9-3h-.2c-3.1.1-5.5 2.7-5.4 5.8.1 3 2.6 5.4 5.6 5.4h.2c2.2-.1 4.1-1.5 4.9-3.4H52c7.6 0 14.8 2.2 21.3 6.5 5 3.3 8.6 7.6 10.6 12.8 1.7 4.2 1.6 8.3-.2 11.8-2.8 5.3-7.5 8.2-13.7 8.2-4 0-7.8-1.2-9.8-2.1-1.1 1-3.1 2.6-4.5 3.6 4.3 2 8.7 3.1 12.9 3.1 9.6 0 16.7-5.3 19.4-10.6 2.9-5.8 2.7-15.8-4.8-24.3z"></path>
      <path d="M32.4 67.1c.1 3 2.6 5.4 5.6 5.4h.2c3.1-.1 5.5-2.7 5.4-5.8-.1-3-2.6-5.4-5.6-5.4h-.2c-.2 0-.5 0-.7.1-4.1-6.8-5.8-14.2-5.2-22.2.4-6 2.4-11.2 5.9-15.5 2.9-3.7 8.5-5.5 12.3-5.6 10.6-.2 15.1 13 15.4 18.3 1.3.3 3.5 1 5 1.5-1.2-16.2-11.2-24.6-20.8-24.6-9 0-17.3 6.5-20.6 16.1-4.6 12.8-1.6 25.1 4 34.8-.5.7-.8 1.8-.7 2.9z"></path>
    </g>
  </symbol>
  <symbol xmlns="http://www.w3.org/2000/svg" viewBox="0 0 547.8 410.6" id="Sass">
    <path fill="#CD6799" d="M471.4 236c-19.1.1-35.7 4.7-49.6 11.5-5.1-10.1-10.2-19.1-11.1-25.7-1-7.7-2.2-12.4-1-21.6 1.2-9.2 6.6-22.3 6.5-23.3s-1.2-5.7-12.2-5.8c-11-.1-20.5 2.1-21.6 5-1.1 2.9-3.2 9.5-4.6 16.3-1.9 10-22 45.7-33.5 64.4-3.7-7.3-6.9-13.7-7.6-18.8-1-7.7-2.2-12.4-1-21.6 1.2-9.2 6.6-22.3 6.5-23.3-.1-1-1.2-5.7-12.2-5.8-11-.1-20.5 2.1-21.6 5-1.1 2.9-2.3 9.7-4.6 16.3-2.3 6.6-29 66.2-36 81.6-3.6 7.9-6.7 14.2-8.9 18.5s-.1.3-.4.8c-1.9 3.7-3 5.7-3 5.7v.1c-1.5 2.7-3.1 5.2-3.9 5.2-.6 0-1.7-7.2.2-17 4-20.7 13.5-52.9 13.4-54 0-.6 1.8-6.2-6.2-9.1-7.8-2.9-10.6 1.9-11.3 1.9-.7 0-1.2 1.7-1.2 1.7s8.7-36.2-16.6-36.2c-15.8 0-37.6 17.3-48.4 32.9-6.8 3.7-21.3 11.6-36.8 20.1-5.9 3.3-12 6.6-17.7 9.7-.4-.4-.8-.9-1.2-1.3-30.6-32.7-87.2-55.8-84.8-99.7.9-16 6.4-58 108.7-109 84.2-41.5 151.2-30 162.8-4.5 16.6 36.4-35.9 104-122.9 113.8-33.2 3.7-50.6-9.1-55-13.9-4.6-5-5.3-5.3-7-4.3-2.8 1.5-1 6 0 8.6 2.6 6.8 13.3 18.8 31.4 24.7 16 5.2 54.9 8.1 102-10.1 52.7-20.4 93.9-77.1 81.8-124.6C330.7 2 250.7-13.9 175 13 130 29 81.2 54.2 46.1 87 4.4 126-2.2 159.9.5 174.1c9.7 50.4 79.2 83.2 107 107.5-1.4.8-2.7 1.5-3.8 2.1-13.9 6.9-66.9 34.6-80.1 63.9-15 33.2 2.4 57 13.9 60.2 35.7 9.9 72.4-7.9 92.1-37.3 19.7-29.4 17.3-67.6 8.2-85.1-.1-.2-.2-.4-.4-.6 3.6-2.1 7.3-4.3 10.9-6.4 7.1-4.2 14.1-8.1 20.1-11.3-3.4 9.3-5.9 20.4-7.1 36.4-1.5 18.8 6.2 43.2 16.3 52.8 4.5 4.2 9.8 4.3 13.2 4.3 11.8 0 17.1-9.8 23-21.4 7.2-14.2 13.7-30.7 13.7-30.7s-8.1 44.6 13.9 44.6c8 0 16.1-10.4 19.7-15.7v.1s.2-.3.6-1c.8-1.3 1.3-2.1 1.3-2.1v-.2c3.2-5.6 10.4-18.3 21.1-39.4 13.8-27.2 27.1-61.2 27.1-61.2s1.2 8.3 5.3 22.1c2.4 8.1 7.4 17 11.4 25.6-3.2 4.5-5.2 7-5.2 7l.1.1c-2.6 3.4-5.4 7.1-8.5 10.7-10.9 13-23.9 27.9-25.7 32.2-2.1 5.1-1.6 8.8 2.4 11.8 2.9 2.2 8.1 2.5 13.4 2.2 9.8-.7 16.7-3.1 20.1-4.6 5.3-1.9 11.5-4.8 17.3-9.1 10.7-7.9 17.2-19.2 16.6-34.1-.3-8.2-3-16.4-6.3-24.1 1-1.4 1.9-2.8 2.9-4.2 16.9-24.7 30-51.8 30-51.8s1.2 8.3 5.3 22.1c2 7 6.1 14.6 9.7 22-15.9 12.9-25.7 27.9-29.2 37.7-6.3 18.2-1.4 26.4 7.9 28.3 4.2.9 10.2-1.1 14.6-3 5.6-1.8 12.2-4.9 18.5-9.5 10.7-7.9 21-18.9 20.4-33.8-.3-6.8-2.1-13.5-4.6-20 13.5-5.6 30.9-8.7 53.1-6.1 47.6 5.6 57 35.3 55.2 47.8-1.8 12.5-11.8 19.3-15.1 21.4-3.3 2.1-4.4 2.8-4.1 4.3.4 2.2 2 2.1 4.8 1.7 3.9-.7 25-10.1 25.9-33.1 1.5-29.4-26.5-61.5-76-61.2zM104.2 359.8C88.4 377 66.4 383.5 56.9 378c-10.2-5.9-6.2-31.3 13.2-49.5 11.8-11.1 27-21.4 37.1-27.7 2.3-1.4 5.7-3.4 9.8-5.9.7-.4 1.1-.6 1.1-.6l2.4-1.5c7.1 26 .3 48.9-16.3 67zm115-78.2c-5.5 13.4-17 47.7-24 45.8-6-1.6-9.7-27.6-1.2-53.3 4.3-12.9 13.4-28.3 18.7-34.3 8.6-9.6 18.1-12.8 20.4-8.9 2.9 5.1-10.5 42.3-13.9 50.7zm94.9 45.4c-2.3 1.2-4.5 2-5.5 1.4-.7-.4 1-2 1-2s11.9-12.8 16.6-18.6c2.7-3.4 5.9-7.4 9.3-11.9v1.3c0 15.3-14.8 25.6-21.4 29.8zm73.2-16.7c-1.7-1.2-1.4-5.2 4.3-17.7 2.2-4.9 7.4-13.1 16.3-21 1 3.2 1.7 6.3 1.6 9.2-.1 19.3-13.9 26.5-22.2 29.5z"></path>
  </symbol>
  <symbol xmlns="http://www.w3.org/2000/svg" viewBox="0 0 1006.5 549.7" id="pug">
    <circle cx="274.9" cy="274.9" r="274.9" fill="#f2f2f2"></circle>
    <path d="M357.7 437.6c-54.3 20-113.9 20-168.2 0-5-1.8-9-7.7-9-12.8v-13.1c0-5.1 4-7.6 9-5.8 54.3 20 113.9 20 168.2 0 5-1.8 9 .7 9 5.8v13.1c-.1 5.1-4.1 11-9 12.8z" fill="#ed1c24"></path>
    <path d="M357.7 421.6c-54.3 27.8-113.9 27.8-168.2 0-5-2.5-9-10.7-9-17.8v-18.1c0-7.1 4-10.6 9-8 54.3 27.8 113.9 27.8 168.2 0 5-2.5 9 .9 9 8v18.1c-.1 7.1-4.1 15.3-9 17.8z"></path>
    <circle cx="273.6" cy="444.4" r="7.7"></circle>
    <circle cx="273.6" cy="443.3" r="6.6"></circle>
    <circle cx="275.5" cy="445.6" r="2.3"></circle>
    <path d="M440.5 301.8c5 68.5-69.1 130-165.9 129.9-96.7.1-170.9-61.4-165.9-129.9 5-68.7 79.5-125.4 166.1-125.5 86.7.1 160.6 56.8 165.7 125.5z"></path>
    <path d="M274.3 166.7c-91 0-175.5 64.1-159.5 161.7 3.2 9 8.5 32.4 33.8 53.1 7.6 6.2 20.7 11.4 26.9 7.2 15.9-10.8-12.3-41.8 19.9-70.4h-.7c17.5-13.3 42.3-23.9 79.4-23.9 37.1 0 61.9 10.6 79.4 23.9h-.7c32.2 28.6 4.1 59.6 19.9 70.4 6.2 4.2 19.4-1 26.9-7.2 25.3-20.7 30.7-44.1 33.9-53.1 16-97.7-68.2-161.7-159.2-161.7z"
      fill="#fbd5a0"></path>
    <path d="M352.6 328.8c-15.3-18.8-44.3-37-78-37h-.4c-33.8 0-62.8 18.2-78 37-15.8 19.2-10.1 27.4-10.1 45.8 0 66.6 23.3 47.2 39 55.2 16 7.8 32.2 5 49.2 5h.3c17 0 33.2 2.8 49.2-5.1 15.6-8 39 11.6 39-55-.1-18.3 5.6-26.7-10.2-45.9z"></path>
    <circle cx="162" cy="299.2" r="27.9"></circle>
    <circle cx="169.2" cy="286.7" r="7.2"></circle>
    <circle cx="164.5" cy="294.5" r="27.9"></circle>
    <circle cx="171.6" cy="282" r="7.2"></circle>
    <circle cx="386" cy="299.2" r="27.9"></circle>
    <circle cx="393.2" cy="286.7" r="7.2"></circle>
    <circle cx="384.4" cy="294.5" r="27.9"></circle>
    <circle cx="391.5" cy="282" r="7.2"></circle>
    <path d="M215.6 191.7s-94.5 16.3-98.3 129.2c-.1 1.7-1.9 2.8-3.4 1.9l-3-1.8-2.3-29.6 4.3-60.4 39.4-29.1 35.4-14.3 27.9 4.1zm117.3 0s94.5 16.3 98.3 129.2c.1 1.7 1.9 2.8 3.4 1.9l3-1.8 2.3-29.6-4.3-60.4-39.4-29.1-35.4-14.3-27.9 4.1z"></path>
    <path fill="#333" stroke="#4d4d4d" stroke-width="4.159" stroke-miterlimit="10" d="M274.4 335.8v59.7"></path>
    <path d="M215.6 191.7s-111.3 15.4-101.7 125.9c.5 5.6-22.2-23.9-39.8-32.9s-17-38.1-17-38.1-.3-50.7 70.8-65.7c71-14.9 87.7 10.8 87.7 10.8zm117.3 0s111.3 15.4 101.7 125.9c-.5 5.6 22.2-23.9 39.8-32.9s17-38.1 17-38.1.3-50.7-70.8-65.7c-71-14.9-87.7 10.8-87.7 10.8zm-58.5 79.6c-34.6 0-69.6 34-62.3 30.2 13.5-7.1 21.3-19.6 62.3-19.6s48.7 12.5 62.3 19.6c7.3 3.8-27.7-30.2-62.3-30.2z"></path>
    <path d="M274.4 256.4c-26.3 0-52.8 25.8-47.3 22.9 10.3-5.4 23.5-14.9 47.3-14.9 23.8 0 37 9.5 47.3 14.9 5.5 2.9-21-22.9-47.3-22.9zm-.2-83.7c-29 0-58.4 16.6-52.3 14.7 11.4-3.5 26-9.6 52.3-9.6s40.9 6.1 52.3 9.6c6.1 1.9-23.2-14.7-52.3-14.7zm.7 219.8c-6.4.2-15 4.2-23.3 6.7-7.9 2.7-15.5 3.8-12.5 4.3 10.3.4 21.7-3.5 35.8-3.3 14-.2 25.4 3.7 35.8 3.3 3-.4-4.6-1.5-12.5-4.3-8.3-2.5-17-6.5-23.3-6.7zm25.6-75.9c3.3 7.3-8.1 19.2-26.2 19.2s-29.5-11.9-26.2-19.2c3.2-7.5 14.7-9.9 26.2-10 11.5.1 23 2.5 26.2 10z"></path>
    <path d="M280.9 312.6c.8 1.8-2 4.7-6.5 4.7s-7.3-2.9-6.5-4.7c.8-1.8 3.6-2.4 6.5-2.5 2.8 0 5.7.6 6.5 2.5z" fill="gray"></path>
    <circle cx="273.6" cy="469.4" r="20.6"></circle>
    <circle cx="273.6" cy="469.6" r="18.5"></circle>
    <path d="M279 463.7c1.1 1 1.7 2.4 1.7 4.4 0 2-.6 3.4-1.7 4.4-1.2.9-2.9 1.4-5.3 1.4h-2.1v4.5H268v-16.1h5.7c2.4 0 4.2.4 5.3 1.4zm-2.6 6.3c.4-.5.6-1.2.6-2.1 0-.9-.3-1.6-.8-2-.6-.4-1.4-.6-2.6-.6h-2v5.4h2.4c1.2 0 2-.2 2.4-.7zm377.8-265.2h42.9v1.4c3-1.3 6.1-2.4 9.3-3.2 3.2-.8 6.4-1.2 9.8-1.2 7.2 0 13.9 1.4 20.1 4.1 6.2 2.7 11.6 6.4 16.1 11.1 4.6 4.7 8.1 10.2 10.7 16.4 2.6 6.3 3.8 12.9 3.8 19.9 0 7.1-1.2 13.8-3.7 20-2.5 6.3-6 11.7-10.5 16.4-4.5 4.7-9.9 8.3-16.1 11-6.2 2.7-13 4-20.4 4-4.2 0-8.1-.4-11.7-1.2-3.6-.8-7.1-1.9-10.4-3.4v21.5h18.8v26h-64.1v-26h16.1v-91h-10.6v-25.8zm59.9 23.3c-4 0-7.7 1-11.2 3.1-3.5 2.1-6.4 5-8.8 8.8v27.7c2 3.2 4.8 5.9 8.3 7.9 3.5 2 7.4 3 11.8 3 3.2 0 6.3-.6 9.2-1.9 2.9-1.2 5.4-3 7.6-5.2 2.1-2.2 3.9-4.9 5.1-8 1.3-3.1 1.9-6.4 1.9-10 0-4-.6-7.6-1.9-10.7-1.2-3.2-2.9-5.8-5.1-8-2.2-2.2-4.7-3.9-7.6-5-2.9-1.1-6-1.7-9.3-1.7zM837 204.8h46.5v72.3h11.9v26h-41.7v-8.4c-3.4 3-7.3 5.4-11.8 7-4.5 1.6-9.7 2.5-15.6 2.5-5.4 0-10.6-.9-15.4-2.6-4.8-1.7-9-4.3-12.6-7.7-3.6-3.4-6.4-7.8-8.4-13-2.1-5.2-3.1-11.3-3.1-18.3v-31.9H774v-26h43.5v57.9c0 6.6 1.7 11.5 5 14.8 3.4 3.3 7.7 4.9 13.1 4.9 3.8 0 7.2-1.2 10.3-3.5 3.1-2.3 5.3-5.5 6.7-9.5v-38.5H837v-26zM977.8 298c-3.5 2-7.1 3.5-10.6 4.4-3.5.9-7.2 1.3-10.8 1.3-7.6 0-14.6-1.3-21-3.9-6.4-2.6-11.9-6.2-16.6-10.8-4.6-4.6-8.3-10-10.9-16.3-2.6-6.3-3.9-13.1-3.9-20.4 0-6.9 1.2-13.4 3.7-19.5s6-11.4 10.5-16 9.9-8.2 16.1-10.9c6.3-2.7 13.1-4 20.4-4.1 4.5.1 8.6.5 12.4 1.4 3.8.9 7.3 2.1 10.6 3.6v-2.1h28.8V299c0 8.3-1.4 15.5-4.3 21.5-2.8 6-6.7 11-11.4 15-4.8 4-10.3 6.9-16.7 8.8-6.3 1.9-13 2.9-19.9 2.9-8.6 0-16.6-1.2-23.9-3.5-7.3-2.3-13.8-5.5-19.5-9.5l11.9-21.1c4.4 2.8 9.1 5 14.2 6.6 5.1 1.6 10.8 2.4 17.1 2.4 3.4 0 6.6-.4 9.4-1.1 2.9-.8 5.4-2 7.5-3.8 2.1-1.8 3.8-4.2 5-7.3 1.2-3 1.8-6.9 1.8-11.5v-.4zm-20.5-20.6c4.4 0 8.4-1.1 12-3.4 3.6-2.2 6.4-5.2 8.5-8.9l.2-23.9c-2.2-4-5.1-7.1-8.8-9.5-3.7-2.3-7.8-3.5-12.1-3.6-3.1.1-6.1.7-9.1 1.9s-5.6 2.8-7.7 5c-2.2 2.2-3.9 4.7-5.2 7.6-1.3 2.9-1.9 6.2-1.9 9.8 0 3.8.6 7.2 1.9 10.3 1.3 3.1 3 5.7 5.1 7.9 2.1 2.2 4.7 3.8 7.6 5 2.9 1.2 6.1 1.8 9.5 1.8z"></path>
  </symbol>
  <symbol xmlns="http://www.w3.org/2000/svg" viewBox="0 0 234 235.1" id="VSCode">
    <path d="M83.3 143.9l-58 45.2L0 176.5V58.7L25.2 46l57.6 45.3L174 0l60 23.9v186.9l-59.7 24.3-91-91.2zm88.9 15.9V75.3l-54.6 42.3 54.6 42.2zM27.3 144.6L56 118.5 27.3 89.9v54.7z" fill="#0179cb"></path>
  </symbol>
  <symbol viewBox="0 0 261.76 226.69" xmlns="http://www.w3.org/2000/svg" id="Vue">
    <path d="M161.096.001l-30.224 52.35L100.647.002H-.005L130.872 226.69 261.749 0z" fill="#41b883"></path>
    <path d="M161.096.001l-30.224 52.35L100.647.002H52.346l78.526 136.01L209.398.001z" fill="#34495e"></path>
  </symbol>
  <symbol xmlns="http://www.w3.org/2000/svg" viewBox="0 0 128 128" id="Webpack">
    <path fill="#1c78c0" d="M117.29 98.1L66.24 127v-22.51L98 87l19.29 11.1zm3.5-3.16V34.55l-18.68 10.8v38.81l18.67 10.77zM10.71 98.1l51 28.88v-22.49L29.94 87zm-3.5-3.16V34.55l18.68 10.8v38.81zm2.19-64.3L61.76 1v21.76L28.21 41.21l-.27.15zm109.18 0L66.24 1v21.76L99.79 41.2l.27.15 18.54-10.71zM61.76 99.37L30.37 82.1V47.92L61.76 66zm4.48 0l31.39-17.25v-34.2L66.24 66zM32.5 44L64 26.66 95.5 44 64 62.16 32.5 44z"></path>
  </symbol>
</svg>